HIERARCHY
ROOT Hips
{
	OFFSET 0.00000 0.00000 0.00000
	CHANNELS 6 Xposition Yposition Zposition Zrotation Yrotation Xrotation 
	JOINT LHipJoint
	{
		OFFSET 0 0 0
		CHANNELS 3 Zrotation Yrotation Xrotation
		JOINT LeftUpLeg
		{
			OFFSET 1.37959 -1.78713 0.86582
			CHANNELS 3 Zrotation Yrotation Xrotation
			JOINT LeftLeg
			{
				OFFSET 2.54611 -6.99539 0.00000
				CHANNELS 3 Zrotation Yrotation Xrotation
				JOINT LeftFoot
				{
					OFFSET 2.59951 -7.14211 0.00000
					CHANNELS 3 Zrotation Yrotation Xrotation
					JOINT LeftToeBase
					{
						OFFSET 0.18493 -0.50810 1.96120
						CHANNELS 3 Zrotation Yrotation Xrotation
						End Site
						{
							OFFSET 0.00000 -0.00000 1.02054
						}
					}
				}
			}
		}
	}
	JOINT RHipJoint
	{
		OFFSET 0 0 0
		CHANNELS 3 Zrotation Yrotation Xrotation
		JOINT RightUpLeg
		{
			OFFSET -1.33564 -1.78713 0.86582
			CHANNELS 3 Zrotation Yrotation Xrotation
			JOINT RightLeg
			{
				OFFSET -2.52705 -6.94302 0.00000
				CHANNELS 3 Zrotation Yrotation Xrotation
				JOINT RightFoot
				{
					OFFSET -2.55964 -7.03257 0.00000
					CHANNELS 3 Zrotation Yrotation Xrotation
					JOINT RightToeBase
					{
						OFFSET -0.25804 -0.70896 2.12109
						CHANNELS 3 Zrotation Yrotation Xrotation
						End Site
						{
							OFFSET -0.00000 -0.00000 1.11821
						}
					}
				}
			}
		}
	}
	JOINT LowerBack
	{
		OFFSET 0 0 0
		CHANNELS 3 Zrotation Yrotation Xrotation
		JOINT Spine
		{
			OFFSET -0.02031 2.24248 -0.18900
			CHANNELS 3 Zrotation Yrotation Xrotation
			JOINT Spine1
			{
				OFFSET 0.08342 2.24689 -0.03799
				CHANNELS 3 Zrotation Yrotation Xrotation
				JOINT Neck
				{
					OFFSET 0 0 0
					CHANNELS 3 Zrotation Yrotation Xrotation
					JOINT Neck1
					{
						OFFSET -0.11607 1.55844 0.24628
						CHANNELS 3 Zrotation Yrotation Xrotation
						JOINT Head
						{
							OFFSET 0.06877 1.60174 -0.17013
							CHANNELS 3 Zrotation Yrotation Xrotation
							End Site
							{
								OFFSET 0.03358 1.61266 -0.08543
							}
						}
					}
				}
				JOINT LeftShoulder
				{
					OFFSET 0 0 0
					CHANNELS 3 Zrotation Yrotation Xrotation
					JOINT LeftArm
					{
						OFFSET 3.47537 0.55866 -0.72348
						CHANNELS 3 Zrotation Yrotation Xrotation
						JOINT LeftForeArm
						{
							OFFSET 5.38154 -0.00000 0.00000
							CHANNELS 3 Zrotation Yrotation Xrotation
							JOINT LeftHand
							{
								OFFSET 3.33312 -0.00000 0.00000
								CHANNELS 3 Zrotation Yrotation Xrotation
								JOINT LeftFingerBase
								{
									OFFSET 0 0 0
									CHANNELS 3 Zrotation Yrotation Xrotation
									JOINT LeftHandIndex1
									{
										OFFSET 0.71079 -0.00000 0.00000
										CHANNELS 3 Zrotation Yrotation Xrotation
										End Site
										{
											OFFSET 0.57306 -0.00000 0.00000
										}
									}
								}
								JOINT LThumb
								{
									OFFSET 0 0 0
									CHANNELS 3 Zrotation Yrotation Xrotation
									End Site
									{
										OFFSET 0.58181 -0.00000 0.58181
									}
								}
							}
						}
					}
				}
				JOINT RightShoulder
				{
					OFFSET 0 0 0
					CHANNELS 3 Zrotation Yrotation Xrotation
					JOINT RightArm
					{
						OFFSET -3.27844 0.90739 -0.35708
						CHANNELS 3 Zrotation Yrotation Xrotation
						JOINT RightForeArm
						{
							OFFSET -5.16954 -0.00000 0.00000
							CHANNELS 3 Zrotation Yrotation Xrotation
							JOINT RightHand
							{
								OFFSET -3.38287 -0.00000 0.00000
								CHANNELS 3 Zrotation Yrotation Xrotation
								JOINT RightFingerBase
								{
									OFFSET 0 0 0
									CHANNELS 3 Zrotation Yrotation Xrotation
									JOINT RightHandIndex1
									{
										OFFSET -0.81797 -0.00000 0.00000
										CHANNELS 3 Zrotation Yrotation Xrotation
										End Site
										{
											OFFSET -0.65947 -0.00000 0.00000
										}
									}
								}
								JOINT RThumb
								{
									OFFSET 0 0 0
									CHANNELS 3 Zrotation Yrotation Xrotation
									End Site
									{
										OFFSET -0.66953 -0.00000 0.66953
									}
								}
							}
						}
					}
				}
			}
		}
	}
}
MOTION
Frames: 11
Frame Time: 0.105263
0.00 0.00 0.00 0 0 0 0 0 0 -21 0 0 0 0 0 0 0 0 0 0 0 0 0 0 21 0 0 0 0 0 0 0 0 0 0 0 0 0 0 0 0 0 0 0 0 0 0 -16 0 0 21 0 0 11 0 0 0 -8 0 0 0 0 0 0 0 0 0 0 0 0 0 0 0 0 0 0 0 0 8 0 0 0 0 0 0 0 0 0 0 0 0 0 0 0 0 0
0.00 0.00 0.00 167.7140 -62.1021 -163.0510 0.0000 0.0000 0.0000 -22.5964 3.1192 -8.0065 1.6421 8.0770 22.9483 1.0015 3.6401 -20.5496 0.1660 -2.6250 -7.2364 0.0000 0.0000 0.0000 0.7646 5.4154 -22.7843 -2.6302 -10.0708 29.2064 -0.1961 -1.1697 -8.8773 -0.5058 4.5591 -12.6552 -6.0906 -1.4032 6.9564 2.9641 -2.3639 3.6224 6.6761 -1.3695 0.2381 -17.2995 -14.5662 -1.6430 15.8901 -22.1809 14.6842 5.6101 -10.8338 8.5596 0.0000 -0.0000 0.0000 -88.5128 -11.0690 43.7581 22.9414 -34.0246 -7.1055 -0.0000 -0.0000 3.7442 -2.1231 37.1436 -1.2823 -7.1250 0.0000 -0.0000 -43.0845 61.7485 -19.5045 0.0000 -0.0000 0.0000 65.5033 23.6604 -1.6200 -32.0181 42.5616 -12.7531 0.0000 -0.0000 -44.0152 -4.8145 29.4103 -2.3684 7.1250 -0.0000 -0.0000 15.0711 -1.3517 15.2527
0.00 0.00 0.00 169.1080 -63.0818 -164.6380 0.0000 0.0000 0.0000 -17.1984 6.0299 -16.1516 4.3068 12.5579 37.7353 1.1498 -5.4727 -19.1900 0.2411 -3.1602 -8.7250 0.0000 0.0000 0.0000 3.3164 2.9952 -25.5909 -3.7843 -11.8677 35.2656 -0.3712 1.7974 -11.0236 -0.4207 4.1632 -11.5364 -3.7732 -1.9987 10.7456 5.0506 -3.2902 4.7518 7.8066 -1.9193 -0.5263 -14.0156 -13.9967 -3.2275 11.6045 -20.2786 14.2122 4.0155 -9.9115 7.5032 0.0000 -0.0000 0.0000 -100.5642 -33.8988 80.9882 30.6251 -41.4232 -11.8211 -0.0000 0.0000 -0.1768 0.0731 36.7155 0.0437 -7.1250 0.0000 -0.0000 -40.4626 61.9866 -18.3160 0.0000 -0.0000 0.0000 70.2663 21.3794 8.0274 -62.2434 56.8787 -36.2140 0.0000 -0.0000 -42.1418 -16.7380 20.5935 -6.0383 7.1250 -0.0000 -0.0000 7.5241 -8.7055 6.3551
0.00 0.00 0.00 192.3420 -67.7098 -188.9160 0.0000 0.0000 0.0000 -4.5071 6.3224 -22.5542 8.0655 16.1672 52.7982 1.4984 -8.7184 -21.9222 0.5944 -4.9356 -13.7250 0.0000 0.0000 0.0000 3.8917 0.9761 -16.5726 -1.9118 -8.6799 24.7991 0.1045 -6.7679 -6.3216 -1.5764 7.9216 -22.4761 -1.2022 -3.0758 9.6358 5.0006 -4.3260 3.1269 6.3628 -2.2995 -1.6524 -16.1784 -16.3001 3.3259 16.0478 -24.0367 7.8746 5.7579 -12.0210 5.7397 -0.0000 0.0000 0.0000 -91.8486 -21.6518 70.0320 36.0114 -45.5210 -15.5306 -0.0000 -0.0000 3.4894 -3.2998 31.4268 -1.7219 -7.1250 0.0000 -0.0000 -38.0587 57.0770 -12.4818 -0.0000 0.0000 0.0000 62.4194 8.1380 -25.4641 -66.4130 57.7898 -39.7246 0.0000 -0.0000 -40.9006 -0.6023 13.1407 -0.1369 7.1250 -0.0000 -0.0000 18.2503 -17.2056 12.6999
0.00 0.00 0.00 200.4910 -72.2040 -196.6020 0.0000 0.0000 0.0000 -14.9163 8.4343 -28.3192 7.7959 15.9670 51.8240 0.3304 -16.5179 -14.6857 0.0404 1.2968 3.5659 0.0000 0.0000 0.0000 6.3950 -3.5216 -20.6827 -4.4432 -12.7279 38.3581 -0.2244 1.5468 -8.5405 -0.1403 2.4137 -6.6504 -0.6160 -0.9914 13.7165 3.5163 -1.3579 2.0775 4.3181 -0.6969 -5.3959 -16.2330 -18.7872 3.9372 20.4349 -27.6602 4.6880 6.5491 -13.8148 5.9344 -0.0000 0.0000 0.0000 -73.6957 -0.6865 25.2767 25.9784 -37.1874 -8.8746 -0.0000 0.0000 -3.5260 3.8059 40.5568 2.4767 -7.1250 0.0000 -0.0000 -42.1275 65.8692 -22.9680 -0.0000 0.0000 0.0000 30.4566 11.1730 -43.6471 -21.8731 32.8333 -6.5169 0.0000 -0.0000 -31.3990 -11.0484 1.6592 -0.3239 7.1250 -0.0000 -0.0000 11.9694 -28.2101 4.9901
0.00 0.00 0.00 198.0430 -83.4519 -192.1210 0.0000 0.0000 0.0000 -5.8927 6.3556 -43.1440 10.0490 17.4373 59.6519 0.9831 -10.8026 -18.1448 1.5479 -7.8531 -22.2687 0.0000 0.0000 0.0000 3.0294 -4.9748 -20.5496 -5.4697 -13.8940 42.8143 -1.4916 3.4462 -22.2275 -2.9443 10.6044 -30.9568 -3.0371 -1.0650 18.8671 2.4950 -2.1407 4.9320 4.8984 -1.1702 -5.0248 -17.8506 -19.9409 3.8713 24.6839 -28.1516 -2.5467 7.9936 -14.2914 4.7951 -0.0000 0.0000 0.0000 -56.9141 7.6612 -18.5160 18.5469 -28.8518 -4.8103 -0.0000 0.0000 -5.4019 8.1441 41.5720 5.4246 -7.1250 0.0000 -0.0000 -39.4731 67.9201 -23.1024 -0.0000 0.0000 0.0000 28.2691 -1.2895 -45.6706 -15.5720 24.9369 -3.4635 0.0000 -0.0000 -41.3903 -8.1547 3.0384 -0.4352 7.1250 -0.0000 -0.0000 13.9969 -26.8369 6.3487
0.00 0.00 0.00 217.9780 -79.8075 -210.7680 0.0000 0.0000 0.0000 -0.1744 3.4274 -50.9416 14.9916 19.3877 75.2115 0.8392 -14.8959 -18.1260 0.9187 -6.1068 -17.0946 0.0000 0.0000 0.0000 3.0729 -3.4444 -24.7687 -6.2549 -14.6709 45.9964 -1.2767 3.9960 -20.4152 -3.2175 11.0391 -32.4120 2.0140 -0.7038 22.2735 3.9865 -0.6834 5.6596 3.3819 -0.5674 -6.1991 -16.4356 -20.4353 2.6605 25.0552 -28.4716 -3.3650 7.7731 -14.4263 4.6740 0.0000 -0.0000 0.0000 -67.3711 11.6547 -14.7101 19.9860 -30.6255 -5.5242 -0.0000 -0.0000 1.6833 11.5582 32.3376 6.2430 -7.1250 0.0000 -0.0000 -24.2190 61.2035 -9.8845 0.0000 -0.0000 0.0000 22.8610 -2.0627 -46.7915 -15.5980 24.9726 -3.4745 0.0000 -0.0000 -42.1238 -3.9943 -2.6558 0.1854 7.1250 -0.0000 -0.0000 18.0605 -32.2548 5.8923
0.00 0.00 0.00 237.8990 -77.3497 -229.0080 0.0000 0.0000 0.0000 -1.5429 3.8815 -47.3984 13.6783 19.0136 71.2197 0.4894 -21.7513 -18.8180 0.0039 -0.4016 -1.1035 0.0000 0.0000 0.0000 4.5861 -0.0788 -13.5015 -2.6842 -10.1653 29.5137 -0.1983 -6.1202 -12.8152 -4.4410 12.7252 -38.3483 2.0712 -1.7049 19.3376 4.3958 -1.9588 4.8933 4.0158 -1.1512 -5.4284 -16.1396 -20.0857 1.9899 24.8045 -28.5766 -0.3651 7.4817 -14.3164 5.6173 -0.0000 0.0000 0.0000 -77.0491 12.1104 -1.6900 19.6716 -30.2446 -5.3649 -0.0000 -0.0000 4.0578 2.1005 36.3405 1.2451 -7.1250 0.0000 -0.0000 -38.0407 62.2149 -17.2404 -0.0000 0.0000 0.0000 25.9403 -3.0226 -42.8247 -15.8343 25.2955 -3.5749 0.0000 -0.0000 -41.9429 -2.4153 -3.3280 0.1403 7.1250 -0.0000 -0.0000 19.4240 -32.8260 6.0990
0.00 0.00 0.00 244.7060 -78.6246 -234.1520 0.0000 0.0000 0.0000 -4.1645 5.7941 -47.8647 11.9030 18.3494 65.6811 -1.5089 -25.3142 -5.5996 0.0191 0.8932 2.4550 0.0000 0.0000 0.0000 3.6570 1.8994 -11.7645 -1.8952 -8.6442 24.6886 0.7052 -14.8384 -3.1945 -1.9097 8.6753 -24.7848 0.5506 -1.5634 18.1825 4.4259 -2.0674 4.9040 4.8799 -1.1860 -4.7503 -15.0902 -20.5600 1.4983 25.5857 -29.3392 -0.2503 7.3681 -14.6612 5.8702 0.0000 0.0000 0.0000 -80.5727 10.6810 6.1494 24.2873 -35.4666 -7.8726 -0.0000 -0.0000 3.0288 2.5665 34.0072 1.4361 -7.1250 0.0000 -0.0000 -34.9754 60.4691 -14.1984 0.0000 0.0000 0.0000 30.1696 -2.1662 -44.8203 -15.6962 25.1069 -3.5160 0.0000 -0.0000 -42.2870 -3.6131 -2.3764 0.1500 7.1250 -0.0000 -0.0000 18.3000 -31.9740 6.1085
0.00 0.00 0.00 296.7380 -71.3320 -283.7010 0.0000 0.0000 0.0000 -7.5839 9.0259 -59.1459 14.4281 19.2388 73.5078 -2.8317 -29.2214 3.0502 2.1596 9.1908 26.3940 0.0000 0.0000 0.0000 11.4980 -4.0542 -19.3967 -4.4097 -12.6865 38.2059 -0.0236 -3.9162 -6.4967 -1.9034 8.6618 -24.7430 0.0979 -0.8146 19.5413 6.0551 -1.0586 5.1516 6.7598 -0.6987 -5.2341 -11.1586 -8.3465 -15.0721 9.6867 -11.4899 21.7433 3.6401 -5.2195 10.7065 -0.0000 -0.0000 0.0000 -77.6738 -0.6850 7.8810 27.4620 -38.6162 -9.7861 -0.0000 -0.0000 5.0405 3.1554 28.3847 1.5012 -7.1250 0.0000 -0.0000 -29.4018 55.8650 -8.3529 -0.0000 -0.0000 0.0000 52.6383 -17.0929 -50.8212 -17.4810 27.4875 -4.3070 0.0000 -0.0000 -62.6673 -5.7244 0.7890 -0.0791 7.1250 -0.0000 -0.0000 16.1296 -29.0002 6.5251
0.00 0.00 0.00 314.1910 -73.7111 -299.7340 0.0000 0.0000 0.0000 -11.6629 7.4633 -59.9963 13.7173 19.0261 71.3393 -2.8467 -28.2504 11.1126 0.5832 -4.8899 -13.5948 0.0000 0.0000 0.0000 15.9855 -9.8224 -30.3763 -8.7372 -16.6356 55.1769 -0.1273 10.2199 -9.0834 -2.9488 10.6117 -30.9812 -2.6151 -1.0156 21.5509 4.5786 -1.9707 6.1295 6.9918 -1.1495 -5.0758 -10.4044 -6.8847 -14.8724 8.0560 -9.1988 21.9068 3.3049 -4.2868 10.3224 -0.0000 0.0000 0.0000 -75.9472 -3.9421 7.5447 29.1192 -40.1264 -10.8375 -0.0000 -0.0000 5.4900 5.6831 27.4132 2.6233 -7.1250 0.0000 -0.0000 -26.2586 55.5075 -7.1281 -0.0000 0.0000 0.0000 60.0403 -17.3467 -53.2005 -18.6932 29.0357 -4.8811 0.0000 -0.0000 -69.3883 -4.8910 4.4906 -0.3839 7.1250 -0.0000 -0.0000 16.2278 -25.4218 7.9983
